<?xml version="1.0" encoding="UTF-8" standalone="no"?>
<!-- Created with Inkscape (http://www.inkscape.org/) -->

<svg
   xmlns:dc="http://purl.org/dc/elements/1.1/"
   xmlns:cc="http://creativecommons.org/ns#"
   xmlns:rdf="http://www.w3.org/1999/02/22-rdf-syntax-ns#"
   xmlns:svg="http://www.w3.org/2000/svg"
   xmlns="http://www.w3.org/2000/svg"
   xmlns:sodipodi="http://sodipodi.sourceforge.net/DTD/sodipodi-0.dtd"
   xmlns:inkscape="http://www.inkscape.org/namespaces/inkscape"
   width="744.09448819"
   height="1052.3622047"
   id="svg2"
   version="1.1"
   inkscape:version="0.48.4 r9939"
   sodipodi:docname="pyros.svg"
   inkscape:export-filename="/home/peixinho/Pictures/drawing.png"
   inkscape:export-xdpi="90"
   inkscape:export-ydpi="90">
  <defs
     id="defs4" />
  <sodipodi:namedview
     id="base"
     pagecolor="#ffffff"
     bordercolor="#666666"
     borderopacity="1.0"
     inkscape:pageopacity="0.0"
     inkscape:pageshadow="2"
     inkscape:zoom="1.4142136"
     inkscape:cx="241.82642"
     inkscape:cy="467.63634"
     inkscape:document-units="px"
     inkscape:current-layer="layer1"
     showgrid="true"
     inkscape:window-width="1680"
     inkscape:window-height="1000"
     inkscape:window-x="0"
     inkscape:window-y="0"
     inkscape:window-maximized="1"
     showguides="true"
     inkscape:snap-global="false">
    <inkscape:grid
       type="xygrid"
       id="grid4076" />
  </sodipodi:namedview>
  <metadata
     id="metadata7">
    <rdf:RDF>
      <cc:Work
         rdf:about="">
        <dc:format>image/svg+xml</dc:format>
        <dc:type
           rdf:resource="http://purl.org/dc/dcmitype/StillImage" />
        <dc:title></dc:title>
      </cc:Work>
    </rdf:RDF>
  </metadata>
  <g
     inkscape:label="Outter"
     inkscape:groupmode="layer"
     id="layer1"
     style="display:inline;opacity:1">
    <path
       style="fill:none;stroke:#000000;stroke-width:15.19999981;stroke-linecap:butt;stroke-linejoin:miter;stroke-miterlimit:4;stroke-opacity:1;stroke-dasharray:none"
       d="m 169.19391,610.20528 c 13.3563,57.93362 63.37073,95.78019 109.30318,109.22624 21.74397,8.90164 115.60448,22.87688 173.58808,-7.6816 48.90843,-20.70009 130.72452,-107.36826 50.52752,-200.11231 -10e-4,-0.0726 6.6223,62.87393 -25.85905,80.36069 0,0 30.6136,-103.89631 -51.10043,-153.9612 0,0 13.83784,43.52673 -15.2302,53.31764 0,0 -3.56368,-118.02935 -170.88117,-124.86251 121.21747,143.94087 51.44516,178.22343 51.44516,178.22343 -57.59529,19.40778 -23.50486,-76.58911 -23.50486,-76.58911 -80.77273,44.07943 -32.15546,130.60649 -32.28885,128.22068 -40.35594,-6.37945 -58.07574,-82.77119 -58.07574,-82.77119 -24.62836,40.58891 -7.92364,96.62924 -7.92364,96.62924 z"
       id="path2991"
       inkscape:connector-curvature="0"
       sodipodi:nodetypes="ccccccccccccc"
       inkscape:export-xdpi="90"
       inkscape:export-ydpi="90" />
  </g>
  <g
     inkscape:groupmode="layer"
     id="layer2"
     inkscape:label="Inner"
     style="display:inline">
    <path
       style="fill:none;stroke:#000000;stroke-width:7.0999999;stroke-linecap:butt;stroke-linejoin:miter;stroke-miterlimit:4;stroke-opacity:1;stroke-dasharray:none"
       d="m 260.75736,712.36218 c 20,15 132.12132,33.63604 195,-2.17157 20,-15 15,-42.82843 5.23532,-62.18433 -4.90541,31.04525 -20.04139,39.31461 -33.16453,36.21323 0,0 26.30887,-12.76023 -1.58249,-53.24399 -10.86918,30.73736 -24.18378,29.90973 -37.9765,26.90418 0,0 66.47163,-39.41121 -26.9364,-122.64205 -11.02886,128.00119 -47.70294,115.39297 -47.70294,115.39297 -22.87246,-3.26844 -23.08204,-44.58827 -23.08204,-44.58827 -34.45139,39.26732 -23.75355,65.04965 -8.75355,76.37309 -24.00794,0.2222 -35.1077,-40.64552 -35.1077,-40.64552 -15.92917,50.59226 14.07083,70.59226 14.07083,70.59226 z"
       id="path2991-9"
       inkscape:connector-curvature="0"
       sodipodi:nodetypes="cccccccccccc"
       inkscape:export-filename="/media/peixinho/PEIXINHO32/PyrosIcons/pyrosblack.png"
       inkscape:export-xdpi="90"
       inkscape:export-ydpi="90" />
  </g>
  <g
     inkscape:groupmode="layer"
     id="layer3"
     inkscape:label="Eyes"
     style="display:inline">
    <path
       style="fill:none;stroke:#000000;stroke-width:1.75999999;stroke-linecap:butt;stroke-linejoin:miter;stroke-miterlimit:4;stroke-opacity:1;stroke-dasharray:none"
       d="m 316.00762,694.56339 c -1.8012,-16.93171 6.86702,-24.34167 12.28903,-23.58219 0,0 13.49577,-0.95641 20.87049,48.91676 -19.73434,-21.89068 -29.16162,-26.90272 -33.15952,-25.33457 z"
       id="path3919"
       inkscape:connector-curvature="0"
       sodipodi:nodetypes="cccc" />
    <path
       style="fill:none;stroke:#000000;stroke-width:1.76027608;stroke-linecap:butt;stroke-linejoin:miter;stroke-miterlimit:4;stroke-opacity:1;stroke-dasharray:none"
       d="m 404.48361,694.95381 c 1.8012,-16.93171 -6.86702,-24.34167 -12.28903,-23.58219 0,0 -13.49577,-0.95641 -20.87049,48.91676 19.73434,-21.89068 29.16162,-26.90272 33.15952,-25.33457 z"
       id="path3919-5"
       inkscape:connector-curvature="0"
       sodipodi:nodetypes="cccc" />
    <path
       style="fill:#000000;stroke:#000000;stroke-width:0.62225395;stroke-miterlimit:4;stroke-opacity:1;stroke-dasharray:none"
       d=""
       id="path4080"
       inkscape:connector-curvature="0" />
    <path
       style="fill:#000000;stroke:#000000;stroke-width:0.15556349;stroke-miterlimit:4;stroke-opacity:1;stroke-dasharray:none"
       d="m 347.18498,716.46169 c -3.85777,-4.27554 -10.25242,-10.62124 -14.06383,-13.95619 -6.80593,-5.9551 -11.69136,-8.8285 -15.33853,-9.02144 l -1.03021,-0.0545 -0.0648,-1.20227 c -0.0862,-1.59766 0.009,-4.84231 0.17863,-6.10782 0.6574,-4.89682 2.25648,-8.68434 4.76883,-11.29521 1.09235,-1.13519 1.7923,-1.6698 2.92303,-2.23257 1.95704,-0.97402 3.7059,-1.05634 5.42205,-0.25522 3.751,1.751 7.60035,7.37021 10.76946,15.72105 2.6499,6.98271 4.85815,15.7293 6.70381,26.55294 0.22248,1.30473 0.3922,2.40917 0.37715,2.45431 -0.015,0.0452 -0.30555,-0.22624 -0.64556,-0.60308 l 0,0 z"
       id="path2994"
       inkscape:connector-curvature="0" />
    <path
       style="fill:#000000;stroke:#000000;stroke-width:0.15556349;stroke-miterlimit:4;stroke-opacity:1;stroke-dasharray:none"
       d="m 372.70641,716.9891 c 3.5726,-22.02612 8.91893,-36.80948 15.41939,-42.63684 1.43773,-1.28887 2.75433,-1.9696 4.09998,-2.11983 3.44359,-0.38447 7.09598,2.33768 9.31904,6.94556 1.31482,2.7253 2.02123,5.66705 2.26119,9.41636 0.0915,1.4302 0.0544,4.1677 -0.0673,4.96644 l -0.0497,0.32606 -0.40941,-0.0463 c -0.6092,-0.0688 -2.06408,0.18242 -3.15658,0.54512 -4.77787,1.5862 -11.55945,6.8403 -20.54813,15.91989 -2.59035,2.61654 -5.19063,5.3325 -6.3148,6.59571 -0.29168,0.32776 -0.55412,0.59595 -0.5832,0.59598 -0.0291,2e-5 -0.0158,-0.22866 0.0296,-0.50819 l 0,0 z"
       id="path2996"
       inkscape:connector-curvature="0" />
  </g>
</svg>
